ffmpeg started on 2025-06-07 at 15:09:14
Report written to "D:\Convert\FFMetrics\reports\ssim_report-6.txt"
Log level: 32
Command line:
ffmpeg -hide_banner -nostdin -i "G:\\\xc0\xed\xe8\xec\xe5\\\xce\xed\xe3\xee\xe8\xed\xe3\xe8\\!_36_\xce\xf1\xe5\xed\xfc_2024\\DreamCast\\\xd1\xee\xe1\xeb\xe0\xe7\xed 2,5-\xec\xe5\xf0\xed\xee\xe3\xee \xe8\xe7\xec\xe5\xf0\xe5\xed\xe8\xff\\[DC] 2-5 Jigen no Ririsa - 07_Telegram_HEVC.mkv" -i "G:\\\xc0\xed\xe8\xec\xe5\\\xce\xed\xe3\xee\xe8\xed\xe3\xe8\\!_36_\xce\xf1\xe5\xed\xfc_2024\\DreamCast\\\xd1\xee\xe1\xeb\xe0\xe7\xed 2,5-\xec\xe5\xf0\xed\xee\xe3\xee \xe8\xe7\xec\xe5\xf0\xe5\xed\xe8\xff\\[DC] 2-5 Jigen no Ririsa - 07_Telegram.mp4" -lavfi "[0:v]settb=AVTB,setpts=PTS-STARTPTS,format=pix_fmts=yuv420p10,fps=24/1,scale=1920:1080:flags=bicubic[main];[1:v]settb=AVTB,setpts=PTS-STARTPTS,format=pix_fmts=yuv420p,fps=24/1,scale=1920:1080:flags=bicubic[ref];[main][ref]ssim=eof_action=endall:stats_file='D\\:/Convert/FFMetrics/logs/ssim_logfile-6.txt'" -f null -
Input #0, matroska,webm, from 'G:\Аниме\Онгоинги\!_36_Осень_2024\DreamCast\Соблазн 2,5-мерного измерения\[DC] 2-5 Jigen no Ririsa - 07_Telegram_HEVC.mkv':
  Metadata:
    COMPATIBLE_BRANDS: isomiso2avc1mp41
    MAJOR_BRAND     : isom
    MINOR_VERSION   : 512
    ENCODER         : Lavf61.7.100
  Duration: 00:24:08.11, start: -0.021000, bitrate: 1225 kb/s
  Stream #0:0: Video: hevc (Main 10), yuv420p10le(tv, bt709, progressive), 1920x1080 [SAR 1:1 DAR 16:9], 24 fps, 24 tbr, 1k tbn (default)
      Metadata:
        HANDLER_NAME    : VideoHandler
        VENDOR_ID       : [0][0][0][0]
        ENCODER         : Lavc61.19.100 libx265
        BPS             : 1028717
        DURATION        : 00:24:07.999666666
        NUMBER_OF_FRAMES: 34752
        NUMBER_OF_BYTES : 186197741
        _STATISTICS_WRITING_APP: mkvpropedit v66.0.0 ('Josie') 64-bit
        _STATISTICS_WRITING_DATE_UTC: 2025-06-04 10:35:49
        _STATISTICS_TAGS: BPS DURATION NUMBER_OF_FRAMES NUMBER_OF_BYTES
  Stream #0:1: Audio: aac (LC), 48000 Hz, stereo, fltp (default)
      Metadata:
        HANDLER_NAME    : SoundHandler
        VENDOR_ID       : [0][0][0][0]
        ENCODER         : Lavc61.19.100 aac
        BPS             : 192941
        DURATION        : 00:24:08.106000000
        NUMBER_OF_FRAMES: 67881
        NUMBER_OF_BYTES : 34924939
        _STATISTICS_WRITING_APP: mkvpropedit v66.0.0 ('Josie') 64-bit
        _STATISTICS_WRITING_DATE_UTC: 2025-06-04 10:35:49
        _STATISTICS_TAGS: BPS DURATION NUMBER_OF_FRAMES NUMBER_OF_BYTES
Input #1, mov,mp4,m4a,3gp,3g2,mj2, from 'G:\Аниме\Онгоинги\!_36_Осень_2024\DreamCast\Соблазн 2,5-мерного измерения\[DC] 2-5 Jigen no Ririsa - 07_Telegram.mp4':
  Metadata:
    major_brand     : isom
    minor_version   : 512
    compatible_brands: isomiso2avc1mp41
    encoder         : Lavf61.1.100
  Duration: 00:24:08.07, start: 0.000000, bitrate: 3828 kb/s
  Stream #1:0[0x1](und): Video: h264 (High) (avc1 / 0x31637661), yuv420p(tv, bt709, progressive), 1920x1080 [SAR 1:1 DAR 16:9], 3680 kb/s, 24 fps, 24 tbr, 12288 tbn (default)
      Metadata:
        handler_name    : VideoHandler
        vendor_id       : [0][0][0][0]
        encoder         : Lavc61.3.100 h264_qsv
  Stream #1:1[0x2](und): Audio: aac (HE-AACv2) (mp4a / 0x6134706D), 48000 Hz, stereo, fltp, 144 kb/s (default)
      Metadata:
        handler_name    : SoundHandler
        vendor_id       : [0][0][0][0]
Stream mapping:
  Stream #0:0 (hevc) -> settb:default
  Stream #1:0 (h264) -> settb:default
  ssim:default -> Stream #0:0 (wrapped_avframe)
  Stream #0:1 -> #0:1 (aac (native) -> pcm_s16le (native))
Output #0, null, to 'pipe:':
  Metadata:
    COMPATIBLE_BRANDS: isomiso2avc1mp41
    MAJOR_BRAND     : isom
    MINOR_VERSION   : 512
    encoder         : Lavf61.7.100
  Stream #0:0: Video: wrapped_avframe, yuv420p10le(tv, bt709, progressive), 1920x1080 [SAR 1:1 DAR 16:9], q=2-31, 200 kb/s, 24 fps, 24 tbn
      Metadata:
        encoder         : Lavc61.19.100 wrapped_avframe
  Stream #0:1: Audio: pcm_s16le, 48000 Hz, stereo, s16, 1536 kb/s (default)
      Metadata:
        HANDLER_NAME    : SoundHandler
        VENDOR_ID       : [0][0][0][0]
        _STATISTICS_TAGS: BPS DURATION NUMBER_OF_FRAMES NUMBER_OF_BYTES
        BPS             : 192941
        DURATION        : 00:24:08.106000000
        NUMBER_OF_FRAMES: 67881
        NUMBER_OF_BYTES : 34924939
        _STATISTICS_WRITING_APP: mkvpropedit v66.0.0 ('Josie') 64-bit
        _STATISTICS_WRITING_DATE_UTC: 2025-06-04 10:35:49
        encoder         : Lavc61.19.100 pcm_s16le
frame=  178 fps=0.0 q=-0.0 size=N/A time=00:00:07.41 bitrate=N/A speed=14.7x    frame=  430 fps=418 q=-0.0 size=N/A time=00:00:17.91 bitrate=N/A speed=17.4x    frame=  691 fps=449 q=-0.0 size=N/A time=00:00:28.79 bitrate=N/A speed=18.7x    frame=  957 fps=467 q=-0.0 size=N/A time=00:00:39.87 bitrate=N/A speed=19.4x    frame= 1211 fps=470 q=-0.0 size=N/A time=00:00:50.45 bitrate=N/A speed=19.6x    frame= 1412 fps=457 q=-0.0 size=N/A time=00:00:58.83 bitrate=N/A speed=19.1x    frame= 1604 fps=446 q=-0.0 size=N/A time=00:01:06.83 bitrate=N/A speed=18.6x    frame= 1827 fps=444 q=-0.0 size=N/A time=00:01:16.12 bitrate=N/A speed=18.5x    frame= 2040 fps=441 q=-0.0 size=N/A time=00:01:25.00 bitrate=N/A speed=18.4x    frame= 2234 fps=434 q=-0.0 size=N/A time=00:01:33.08 bitrate=N/A speed=18.1x    frame= 2457 fps=434 q=-0.0 size=N/A time=00:01:42.37 bitrate=N/A speed=18.1x    frame= 2657 fps=430 q=-0.0 size=N/A time=00:01:50.70 bitrate=N/A speed=17.9x    frame= 2848 fps=426 q=-0.0 size=N/A time=00:01:58.66 bitrate=N/A speed=17.7x    frame= 3053 fps=423 q=-0.0 size=N/A time=00:02:07.20 bitrate=N/A speed=17.6x    frame= 3256 fps=422 q=-0.0 size=N/A time=00:02:15.66 bitrate=N/A speed=17.6x    frame= 3480 fps=422 q=-0.0 size=N/A time=00:02:25.00 bitrate=N/A speed=17.6x    frame= 3721 fps=424 q=-0.0 size=N/A time=00:02:35.04 bitrate=N/A speed=17.7x    frame= 3928 fps=423 q=-0.0 size=N/A time=00:02:43.66 bitrate=N/A speed=17.6x    frame= 4161 fps=424 q=-0.0 size=N/A time=00:02:53.37 bitrate=N/A speed=17.7x    frame= 4399 fps=426 q=-0.0 size=N/A time=00:03:03.29 bitrate=N/A speed=17.8x    frame= 4627 fps=427 q=-0.0 size=N/A time=00:03:12.79 bitrate=N/A speed=17.8x    frame= 4874 fps=429 q=-0.0 size=N/A time=00:03:23.08 bitrate=N/A speed=17.9x    frame= 5102 fps=430 q=-0.0 size=N/A time=00:03:32.58 bitrate=N/A speed=17.9x    frame= 5342 fps=432 q=-0.0 size=N/A time=00:03:42.58 bitrate=N/A speed=  18x    frame= 5578 fps=432 q=-0.0 size=N/A time=00:03:52.41 bitrate=N/A speed=  18x    frame= 5805 fps=433 q=-0.0 size=N/A time=00:04:01.87 bitrate=N/A speed=  18x    frame= 6058 fps=435 q=-0.0 size=N/A time=00:04:12.41 bitrate=N/A speed=18.1x    frame= 6287 fps=435 q=-0.0 size=N/A time=00:04:21.95 bitrate=N/A speed=18.1x    frame= 6538 fps=437 q=-0.0 size=N/A time=00:04:32.41 bitrate=N/A speed=18.2x    frame= 6778 fps=438 q=-0.0 size=N/A time=00:04:42.41 bitrate=N/A speed=18.2x    frame= 7026 fps=439 q=-0.0 size=N/A time=00:04:52.75 bitrate=N/A speed=18.3x    frame= 7271 fps=440 q=-0.0 size=N/A time=00:05:02.95 bitrate=N/A speed=18.3x    frame= 7524 fps=442 q=-0.0 size=N/A time=00:05:13.50 bitrate=N/A speed=18.4x    frame= 7766 fps=443 q=-0.0 size=N/A time=00:05:23.58 bitrate=N/A speed=18.5x    frame= 8026 fps=444 q=-0.0 size=N/A time=00:05:34.41 bitrate=N/A speed=18.5x    frame= 8280 fps=446 q=-0.0 size=N/A time=00:05:45.00 bitrate=N/A speed=18.6x    frame= 8520 fps=446 q=-0.0 size=N/A time=00:05:55.00 bitrate=N/A speed=18.6x    frame= 8765 fps=447 q=-0.0 size=N/A time=00:06:05.20 bitrate=N/A speed=18.6x    frame= 9001 fps=447 q=-0.0 size=N/A time=00:06:15.04 bitrate=N/A speed=18.6x    frame= 9276 fps=449 q=-0.0 size=N/A time=00:06:26.50 bitrate=N/A speed=18.7x    frame= 9526 fps=450 q=-0.0 size=N/A time=00:06:36.91 bitrate=N/A speed=18.8x    frame= 9791 fps=452 q=-0.0 size=N/A time=00:06:47.95 bitrate=N/A speed=18.8x    frame=10043 fps=453 q=-0.0 size=N/A time=00:06:58.45 bitrate=N/A speed=18.9x    frame=10309 fps=454 q=-0.0 size=N/A time=00:07:09.54 bitrate=N/A speed=18.9x    frame=10552 fps=455 q=-0.0 size=N/A time=00:07:19.66 bitrate=N/A speed=18.9x    frame=10819 fps=456 q=-0.0 size=N/A time=00:07:30.79 bitrate=N/A speed=  19x    frame=11072 fps=457 q=-0.0 size=N/A time=00:07:41.33 bitrate=N/A speed=  19x    frame=11325 fps=457 q=-0.0 size=N/A time=00:07:51.87 bitrate=N/A speed=19.1x    frame=11580 fps=458 q=-0.0 size=N/A time=00:08:02.50 bitrate=N/A speed=19.1x    frame=11841 fps=459 q=-0.0 size=N/A time=00:08:13.37 bitrate=N/A speed=19.1x    frame=12056 fps=458 q=-0.0 size=N/A time=00:08:22.33 bitrate=N/A speed=19.1x    frame=12290 fps=458 q=-0.0 size=N/A time=00:08:32.08 bitrate=N/A speed=19.1x    frame=12522 fps=458 q=-0.0 size=N/A time=00:08:41.75 bitrate=N/A speed=19.1x    frame=12779 fps=459 q=-0.0 size=N/A time=00:08:52.45 bitrate=N/A speed=19.1x    frame=13047 fps=460 q=-0.0 size=N/A time=00:09:03.62 bitrate=N/A speed=19.2x    frame=13306 fps=461 q=-0.0 size=N/A time=00:09:14.41 bitrate=N/A speed=19.2x    frame=13529 fps=460 q=-0.0 size=N/A time=00:09:23.70 bitrate=N/A speed=19.2x    frame=13791 fps=461 q=-0.0 size=N/A time=00:09:34.62 bitrate=N/A speed=19.2x    frame=13995 fps=460 q=-0.0 size=N/A time=00:09:43.12 bitrate=N/A speed=19.2x    frame=14236 fps=460 q=-0.0 size=N/A time=00:09:53.16 bitrate=N/A speed=19.2x    frame=14476 fps=460 q=-0.0 size=N/A time=00:10:03.16 bitrate=N/A speed=19.2x    frame=14750 fps=461 q=-0.0 size=N/A time=00:10:14.58 bitrate=N/A speed=19.2x    frame=15012 fps=462 q=-0.0 size=N/A time=00:10:25.50 bitrate=N/A speed=19.2x    frame=15277 fps=463 q=-0.0 size=N/A time=00:10:36.54 bitrate=N/A speed=19.3x    frame=15526 fps=463 q=-0.0 size=N/A time=00:10:46.91 bitrate=N/A speed=19.3x    frame=15736 fps=462 q=-0.0 size=N/A time=00:10:55.66 bitrate=N/A speed=19.3x    frame=15967 fps=462 q=-0.0 size=N/A time=00:11:05.29 bitrate=N/A speed=19.2x    frame=16219 fps=462 q=-0.0 size=N/A time=00:11:15.79 bitrate=N/A speed=19.3x    frame=16460 fps=462 q=-0.0 size=N/A time=00:11:25.83 bitrate=N/A speed=19.3x    frame=16702 fps=462 q=-0.0 size=N/A time=00:11:35.91 bitrate=N/A speed=19.3x    frame=16930 fps=462 q=-0.0 size=N/A time=00:11:45.41 bitrate=N/A speed=19.3x    frame=17076 fps=460 q=-0.0 size=N/A time=00:11:51.50 bitrate=N/A speed=19.2x    frame=17223 fps=457 q=-0.0 size=N/A time=00:11:57.62 bitrate=N/A speed=  19x    frame=17450 fps=457 q=-0.0 size=N/A time=00:12:07.08 bitrate=N/A speed=  19x    frame=17648 fps=456 q=-0.0 size=N/A time=00:12:15.33 bitrate=N/A speed=  19x    frame=17898 fps=456 q=-0.0 size=N/A time=00:12:25.75 bitrate=N/A speed=  19x    frame=18106 fps=456 q=-0.0 size=N/A time=00:12:34.41 bitrate=N/A speed=  19x    frame=18304 fps=455 q=-0.0 size=N/A time=00:12:42.66 bitrate=N/A speed=18.9x    frame=18559 fps=455 q=-0.0 size=N/A time=00:12:53.29 bitrate=N/A speed=  19x    frame=18805 fps=456 q=-0.0 size=N/A time=00:13:03.54 bitrate=N/A speed=  19x    frame=19061 fps=456 q=-0.0 size=N/A time=00:13:14.20 bitrate=N/A speed=  19x    frame=19326 fps=457 q=-0.0 size=N/A time=00:13:25.25 bitrate=N/A speed=  19x    frame=19548 fps=457 q=-0.0 size=N/A time=00:13:34.50 bitrate=N/A speed=  19x    frame=19783 fps=456 q=-0.0 size=N/A time=00:13:44.29 bitrate=N/A speed=  19x    frame=19889 fps=454 q=-0.0 size=N/A time=00:13:48.70 bitrate=N/A speed=18.9x    frame=20154 fps=454 q=-0.0 size=N/A time=00:13:59.75 bitrate=N/A speed=18.9x    frame=20400 fps=454 q=-0.0 size=N/A time=00:14:10.00 bitrate=N/A speed=18.9x    frame=20629 fps=454 q=-0.0 size=N/A time=00:14:19.54 bitrate=N/A speed=18.9x    frame=20894 fps=455 q=-0.0 size=N/A time=00:14:30.58 bitrate=N/A speed=  19x    frame=21128 fps=455 q=-0.0 size=N/A time=00:14:40.33 bitrate=N/A speed=  19x    frame=21354 fps=455 q=-0.0 size=N/A time=00:14:49.75 bitrate=N/A speed=  19x    frame=21606 fps=455 q=-0.0 size=N/A time=00:15:00.25 bitrate=N/A speed=  19x    frame=21890 fps=456 q=-0.0 size=N/A time=00:15:12.08 bitrate=N/A speed=  19x    frame=22126 fps=456 q=-0.0 size=N/A time=00:15:21.91 bitrate=N/A speed=  19x    frame=22381 fps=457 q=-0.0 size=N/A time=00:15:32.54 bitrate=N/A speed=  19x    frame=22632 fps=457 q=-0.0 size=N/A time=00:15:43.00 bitrate=N/A speed=  19x    frame=22875 fps=457 q=-0.0 size=N/A time=00:15:53.12 bitrate=N/A speed=  19x    frame=23142 fps=458 q=-0.0 size=N/A time=00:16:04.25 bitrate=N/A speed=19.1x    frame=23366 fps=457 q=-0.0 size=N/A time=00:16:13.58 bitrate=N/A speed=19.1x    frame=23587 fps=457 q=-0.0 size=N/A time=00:16:22.79 bitrate=N/A speed=19.1x    frame=23818 fps=457 q=-0.0 size=N/A time=00:16:32.41 bitrate=N/A speed=  19x    frame=24024 fps=457 q=-0.0 size=N/A time=00:16:41.00 bitrate=N/A speed=  19x    frame=24261 fps=457 q=-0.0 size=N/A time=00:16:50.87 bitrate=N/A speed=  19x    frame=24539 fps=457 q=-0.0 size=N/A time=00:17:02.45 bitrate=N/A speed=19.1x    frame=24783 fps=458 q=-0.0 size=N/A time=00:17:12.62 bitrate=N/A speed=19.1x    frame=25023 fps=458 q=-0.0 size=N/A time=00:17:22.62 bitrate=N/A speed=19.1x    frame=25270 fps=458 q=-0.0 size=N/A time=00:17:32.91 bitrate=N/A speed=19.1x    frame=25521 fps=458 q=-0.0 size=N/A time=00:17:43.37 bitrate=N/A speed=19.1x    frame=25779 fps=459 q=-0.0 size=N/A time=00:17:54.12 bitrate=N/A speed=19.1x    frame=26027 fps=459 q=-0.0 size=N/A time=00:18:04.45 bitrate=N/A speed=19.1x    frame=26256 fps=458 q=-0.0 size=N/A time=00:18:14.00 bitrate=N/A speed=19.1x    frame=26467 fps=458 q=-0.0 size=N/A time=00:18:22.79 bitrate=N/A speed=19.1x    frame=26733 fps=459 q=-0.0 size=N/A time=00:18:33.87 bitrate=N/A speed=19.1x    frame=26957 fps=458 q=-0.0 size=N/A time=00:18:43.20 bitrate=N/A speed=19.1x    frame=27193 fps=458 q=-0.0 size=N/A time=00:18:53.04 bitrate=N/A speed=19.1x    frame=27423 fps=458 q=-0.0 size=N/A time=00:19:02.62 bitrate=N/A speed=19.1x    frame=27675 fps=458 q=-0.0 size=N/A time=00:19:13.12 bitrate=N/A speed=19.1x    frame=27889 fps=458 q=-0.0 size=N/A time=00:19:22.04 bitrate=N/A speed=19.1x    frame=28108 fps=458 q=-0.0 size=N/A time=00:19:31.16 bitrate=N/A speed=19.1x    frame=28366 fps=458 q=-0.0 size=N/A time=00:19:41.91 bitrate=N/A speed=19.1x    frame=28619 fps=459 q=-0.0 size=N/A time=00:19:52.45 bitrate=N/A speed=19.1x    frame=28848 fps=458 q=-0.0 size=N/A time=00:20:02.00 bitrate=N/A speed=19.1x    frame=29083 fps=458 q=-0.0 size=N/A time=00:20:11.79 bitrate=N/A speed=19.1x    frame=29326 fps=458 q=-0.0 size=N/A time=00:20:21.91 bitrate=N/A speed=19.1x    frame=29591 fps=459 q=-0.0 size=N/A time=00:20:32.95 bitrate=N/A speed=19.1x    frame=29874 fps=460 q=-0.0 size=N/A time=00:20:44.75 bitrate=N/A speed=19.2x    frame=30137 fps=460 q=-0.0 size=N/A time=00:20:55.70 bitrate=N/A speed=19.2x    frame=30398 fps=460 q=-0.0 size=N/A time=00:21:06.58 bitrate=N/A speed=19.2x    frame=30676 fps=461 q=-0.0 size=N/A time=00:21:18.16 bitrate=N/A speed=19.2x    frame=30974 fps=462 q=-0.0 size=N/A time=00:21:30.58 bitrate=N/A speed=19.2x    frame=31244 fps=462 q=-0.0 size=N/A time=00:21:41.83 bitrate=N/A speed=19.3x    frame=31523 fps=463 q=-0.0 size=N/A time=00:21:53.45 bitrate=N/A speed=19.3x    frame=31792 fps=463 q=-0.0 size=N/A time=00:22:04.66 bitrate=N/A speed=19.3x    frame=32051 fps=464 q=-0.0 size=N/A time=00:22:15.45 bitrate=N/A speed=19.3x    frame=32294 fps=464 q=-0.0 size=N/A time=00:22:25.58 bitrate=N/A speed=19.3x    frame=32541 fps=464 q=-0.0 size=N/A time=00:22:35.87 bitrate=N/A speed=19.3x    frame=32760 fps=464 q=-0.0 size=N/A time=00:22:45.00 bitrate=N/A speed=19.3x    frame=32964 fps=463 q=-0.0 size=N/A time=00:22:53.50 bitrate=N/A speed=19.3x    frame=33140 fps=462 q=-0.0 size=N/A time=00:23:00.83 bitrate=N/A speed=19.3x    frame=33357 fps=462 q=-0.0 size=N/A time=00:23:09.87 bitrate=N/A speed=19.2x    frame=33548 fps=461 q=-0.0 size=N/A time=00:23:17.83 bitrate=N/A speed=19.2x    frame=33752 fps=461 q=-0.0 size=N/A time=00:23:26.33 bitrate=N/A speed=19.2x    frame=33979 fps=461 q=-0.0 size=N/A time=00:23:35.79 bitrate=N/A speed=19.2x    frame=34174 fps=460 q=-0.0 size=N/A time=00:23:43.91 bitrate=N/A speed=19.2x    frame=34347 fps=459 q=-0.0 size=N/A time=00:23:51.12 bitrate=N/A speed=19.1x    frame=34538 fps=459 q=-0.0 size=N/A time=00:23:59.08 bitrate=N/A speed=19.1x    [Parsed_ssim_10 @ 00000298d76645c0] SSIM Y:0.993927 (22.166063) U:0.994205 (22.369648) V:0.994150 (22.328549) All:0.994011 (22.226206)
[out#0/null @ 00000298ca544a40] video:14932KiB audio:271524KiB subtitle:0KiB other streams:0KiB global headers:0KiB muxing overhead: unknown
frame=34752 fps=459 q=-0.0 Lsize=N/A time=00:24:08.00 bitrate=N/A speed=19.1x    
